<svg width="50" height="34" viewBox="0 0 50 34" fill="none" xmlns="http://www.w3.org/2000/svg">
<g clip-path="url(#clip0_922_6133)">
<path d="M49.8421 30.7923C49.1658 32.5834 47.683 33.5955 45.7241 33.7169H4.27522C2.0575 33.5798 0.353572 32.2441 0.00385155 30.0799L0 3.7082C0.181793 1.7702 1.82718 0.187283 3.8138 0L46.2594 0.00374565C47.951 0.201516 49.162 1.31398 49.8429 2.77403V30.7915L49.8421 30.7923ZM23.1124 2.3253H22.7272V31.3167H23.1124V2.3253ZM11.6047 3.97714C11.4291 4.01309 9.9786 6.09268 9.84841 6.39383C8.65751 9.1364 11.5192 9.88328 13.0575 11.2422C13.703 11.813 13.6846 12.3075 13.3425 13.0641L13.5967 13.2619C14.3463 12.0236 16.1557 10.526 15.9285 8.97384C15.6843 7.30777 13.0991 6.17958 11.9105 5.16526C11.4969 4.96973 12.0831 3.87975 11.6047 3.97639V3.97714ZM41.9079 19.7051L35.861 4.87235L32.6226 4.79294L26.5788 19.7059H29.8526L31.1321 16.3438L37.0966 16.3296L38.5186 19.7059H41.9079V19.7051ZM44.2959 6.67026H42.6783V8.91765H40.3673V10.3785C40.3673 10.3972 40.3049 10.4227 40.3072 10.4534L40.4058 10.5657H42.4857C42.5096 10.5657 42.5951 10.4631 42.6783 10.4908V12.7382H44.2959V10.4908C44.4037 10.4474 44.527 10.5657 44.5655 10.5657H46.4913L46.6068 10.4534V8.91765H44.2959V6.67026ZM10.3183 10.0526L9.93931 9.92374C9.1975 10.8467 8.11984 11.9007 8.87474 13.1383C9.36235 13.9383 10.4385 14.2605 11.0971 14.8725C11.3983 15.1519 11.4907 15.2253 11.3274 15.6591L11.738 15.74C12.6015 14.5002 13.8086 13.3907 12.3304 12.025C11.9005 11.628 10.517 10.9313 10.3222 10.6069C10.185 10.3785 10.2782 10.2833 10.3191 10.0526H10.3183ZM7.39806 17.1581H9.55493L9.90773 18.3612L13.4034 18.3537L13.7146 17.1581H15.6789L15.7613 17.0053L15.4956 16.2277L7.90107 16.1857C7.63993 16.1535 7.35184 17.1146 7.39883 17.1581H7.39806ZM5.31822 19.1433V23.4133L5.43377 23.5257H7.82173C7.99351 23.5257 8.61669 23.2965 8.77922 23.1834C9.47635 22.6987 9.4571 21.4259 8.55352 21.2019C8.93483 20.8311 9.06655 20.5839 9.01879 20.0378C8.89631 18.6204 6.42361 19.2774 5.47459 19.0609L5.31745 19.1425L5.31822 19.1433ZM12.3666 19.1058C11.7364 19.004 10.5286 19.1058 9.82453 19.1058C9.80142 19.1058 9.76522 19.0107 9.70899 19.0309V23.3384C9.70899 23.3572 9.64659 23.3826 9.6489 23.4133L9.7475 23.5257H12.1355C12.3411 23.5257 12.9528 23.2845 13.1361 23.1504C13.8887 22.6028 13.7924 21.4656 12.8673 21.2019C13.0144 21.0393 13.2039 20.891 13.2909 20.6783C13.5906 19.9471 13.1507 19.2317 12.3658 19.1051L12.3666 19.1058ZM13.9457 19.1433V23.4133L14.0612 23.5257H16.4492C16.621 23.5257 17.2442 23.2965 17.4067 23.1834C18.0853 22.7121 18.0892 21.4132 17.181 21.2019C17.7849 20.6258 17.9675 19.7351 17.0963 19.2999C16.225 18.8646 15.0303 19.2497 14.1028 19.0609L13.9457 19.1425V19.1433ZM37.0558 21.3525H36.1306V22.3271H37.0558V21.3525ZM35.0522 21.5031L34.1278 21.9525V23.1511H33.5108L33.51 23.7819L34.1278 23.8254V27.0841C34.1278 27.9853 35.2733 28.1913 35.975 27.9418L35.9003 27.1957C35.5968 27.1972 35.274 27.2541 35.053 27.0092V23.8254C35.5175 23.8021 35.9319 24.1692 35.9057 23.4867C35.9011 23.3586 35.9234 23.2096 35.774 23.1616L35.053 23.1511V21.5031H35.0522ZM18.1054 22.9264C17.7256 22.8964 17.6717 23.2036 18.0299 23.3377L17.721 23.3759C17.8034 23.6238 18.0669 23.4485 18.2563 23.525L18.3357 23.301C18.3472 23.5459 18.5298 23.4935 18.7216 23.525V22.9257C18.4813 22.8552 18.5221 23.2238 18.452 23.2261C18.328 23.1317 18.4243 22.8627 18.1832 22.9257L18.1816 23.2995L17.9513 23.1122L18.1046 22.9257L18.1054 22.9264ZM26.5788 27.9456C26.7883 27.9081 27.4153 28.0512 27.4924 27.8227C27.7296 26.705 26.7467 23.2703 28.929 24.1175C29.1116 23.8231 29.4682 23.3931 29.0638 23.1684C28.3174 22.7534 27.7936 23.1931 27.3491 23.7504L27.3368 23.1616L26.578 23.1511V27.9456H26.5788ZM33.5116 27.9448C32.9092 26.908 33.6872 24.4509 33.0147 23.5969C32.1889 22.5473 29.1185 22.9024 29.1208 24.5737L29.9196 24.6389C30.1083 24.5745 30.0521 23.9153 30.8548 23.8246C31.1991 23.7857 31.9178 23.7774 32.1612 24.0523C32.3145 24.2246 32.4863 24.8022 32.2259 24.9341C31.8762 25.1116 30.8802 25.1116 30.4265 25.2068C29.801 25.3379 29.0499 25.7169 28.9652 26.4069C28.7279 28.3374 31.3208 28.4408 32.4324 27.4204L32.5826 27.9119L33.5108 27.9448H33.5116ZM41.7539 27.9456V24.1625C41.7539 24.0808 41.4943 23.6119 41.4103 23.5227C40.6932 22.7534 39.1348 22.8815 38.5563 23.7504L38.5224 23.1863L37.7483 23.1511V27.9456H38.6726V24.6869C38.6726 24.6576 38.8298 24.334 38.8691 24.2786C39.2858 23.6823 40.5237 23.6193 40.7948 24.3468C40.811 24.391 40.9065 24.812 40.9065 24.8374V27.9463H41.7539V27.9456ZM46.5298 28.2078V23.1511H45.6817V23.6006C44.0171 22.1675 42.1329 23.5632 42.1321 25.5109C42.1313 27.4586 43.9539 28.8018 45.6047 27.4212C45.6493 28.1553 45.6293 28.8355 44.792 29.0648C44.1434 29.2416 43.3546 29.1494 43.199 28.4123L42.3694 28.2812C42.2569 28.3479 42.3832 28.8565 42.4294 28.9741C42.8785 30.1053 45.2056 30.1263 45.9906 29.3105C46.2055 29.0873 46.4882 28.5044 46.5298 28.2078ZM37.055 23.1511H36.1306V27.9456H37.055V23.1511ZM5.16416 27.0459L4.50862 24.8696L4.09651 24.8839L3.54728 27.0459L3.84462 27.0361L4.00022 26.4908L4.62879 26.4818L4.78286 27.0429L5.16416 27.0459ZM6.70478 25.5484C6.751 24.9805 6.40051 24.6914 5.82123 24.8015C5.28125 24.9041 5.27123 25.9334 5.31899 26.3349C5.45611 27.4916 6.80261 27.3373 6.70555 26.2226L6.43748 26.2203C5.87515 27.986 5.09175 25.3041 6.11703 25.0375C6.33041 25.1446 6.41745 25.3139 6.40359 25.5446L6.70632 25.5491L6.70478 25.5484ZM8.39946 25.5484C8.4711 25.0015 8.05821 24.6996 7.51591 24.8007C6.88965 24.9176 6.91199 26.3761 7.15156 26.7994C7.5552 27.5141 8.57586 26.965 8.39946 26.2218L8.13524 26.2181L7.86178 26.7867L7.67229 26.8249C7.20933 26.7829 7.2594 25.5296 7.47355 25.209C7.73237 24.8217 8.09519 25.1858 8.10135 25.5386L8.40023 25.5484H8.39946ZM12.174 27.0466C12.6154 27.0286 13.1746 27.1612 13.4227 26.7245C13.6337 26.3522 13.6892 25.1348 13.2347 24.9288C13.1353 24.8839 12.4097 24.8112 12.2703 24.8135C11.9937 24.8172 12.1771 25.1019 12.1778 25.2824C12.1817 25.8705 12.1678 26.4593 12.174 27.0466ZM15.1782 25.0989V26.9343C15.1782 27.0751 15.5633 27.0751 15.5633 26.9343V25.0989H16.1796L16.0502 24.8711L14.7507 24.8172L14.639 25.0989H15.1774H15.1782ZM16.3337 24.9116V27.0466H17.4891V26.747H16.641V26.072C17.7718 26.1859 17.768 25.6585 16.641 25.7731V25.1416L17.4891 25.0981V24.8741C17.1664 24.9213 16.792 24.8292 16.4908 24.8299C16.4007 24.8299 16.3914 24.8352 16.3337 24.9116ZM17.8743 27.0466C18.425 27.0376 18.9527 27.1837 19.2231 26.5979C19.448 26.1095 19.4395 24.9918 18.7563 24.8786C18.6377 24.8592 18.1531 24.8112 18.0484 24.8142C17.9536 24.8165 17.9297 24.8427 17.8743 24.9123V27.0474V27.0466ZM8.78462 24.8741V27.0466H9.09274L9.1328 26.072C9.43399 26.1949 9.76368 26.039 9.84687 26.4263C9.91235 26.732 9.72747 27.1837 10.2497 27.0084C10.1065 26.6661 10.3183 26.0862 9.86305 25.9971C9.97089 25.8323 10.1072 25.875 10.1535 25.6472C10.3491 24.6756 9.46095 24.8839 8.78462 24.8749V24.8741ZM10.6719 27.0466H11.7888V26.747H10.9407V26.072H11.7118V25.7731H10.9407V25.0981H11.7881C12.0808 24.8494 10.6226 24.7528 10.5648 24.9918C10.7481 25.3109 10.3499 26.9492 10.6711 27.0459L10.6719 27.0466ZM14.3308 24.8741H14.0227V27.0466H14.3308V24.8741ZM10.0934 28.694C10.125 28.6662 10.0934 28.3344 10.0541 28.246C9.82839 27.7478 8.78847 27.9059 8.78153 28.5801C8.7746 29.3195 9.80836 29.2139 9.8669 29.557C9.96165 30.1106 8.96718 30.2581 9.08735 29.5225L8.78462 29.518L8.99029 30.1982C9.49484 30.3675 10.128 30.3346 10.1758 29.7045C10.2374 28.8865 9.30457 29.082 9.12817 28.6917C8.98027 28.3636 9.41627 28.1134 9.67663 28.3134L9.79218 28.5763C9.78448 28.619 9.38777 28.7456 9.67201 28.8445C9.81221 28.8932 9.76368 28.7187 9.84302 28.6962C9.92236 28.6737 10.071 28.7142 10.0941 28.6947L10.0934 28.694ZM15.625 28.3359C15.6951 28.4393 15.5764 28.7554 15.9092 28.6932C16.3491 28.5614 15.5749 27.5673 14.9063 28.0924C14.6875 28.2647 14.6374 28.7344 14.7876 28.9614C14.9379 29.1884 15.6296 29.2745 15.7051 29.4925C15.8622 29.945 15.4023 30.2087 15.0619 29.8926L14.9486 29.4753L14.6397 29.5203C14.5935 30.575 16.0625 30.5945 16.0995 29.6229C16.1241 28.9839 15.1243 28.9809 15.0341 28.7187C14.8755 28.2587 15.4809 28.1239 15.625 28.3351V28.3359ZM17.4129 28.6947C17.6701 28.7299 17.7564 28.6093 17.7071 28.3748C17.5839 27.7808 16.299 27.7516 16.4053 28.7344C16.4623 29.2603 17.3019 29.2116 17.3998 29.4933C17.6301 30.157 16.5709 30.2537 16.7173 29.5188H16.4107C16.2304 30.6065 17.8242 30.5683 17.7919 29.5667C17.7726 28.9494 16.8983 28.9996 16.755 28.7719C16.4269 28.2497 17.4614 27.9583 17.4121 28.6955L17.4129 28.6947ZM5.31822 28.0205V30.2679C6.26416 30.4529 7.12845 29.8641 6.31962 29.0318C6.45597 28.9636 6.49834 28.9562 6.53223 28.7928C6.69939 27.9793 5.94525 27.9793 5.31822 28.0205ZM7.32103 28.0205H7.0129V29.8559C7.0129 29.8896 7.22474 30.1682 7.27712 30.1982C7.55443 30.36 8.39946 30.2679 8.39946 29.9308V28.0205H8.09134V29.7809C8.09134 30.1593 7.32103 30.0454 7.32103 29.706V28.0205ZM10.5563 28.1329V30.1555C10.5563 30.2169 10.7481 30.3053 10.8244 30.2664C11.1487 30.1675 10.7543 28.4415 10.9215 28.1291L10.7489 28.019L10.5563 28.1321V28.1329ZM11.4037 28.0205V30.2679H11.7118V28.6198L12.3373 30.2581L12.7902 30.1555V28.0205H12.4821V29.7435L11.8551 28.031L11.4037 28.0205ZM14.4079 28.0205H13.2524V30.2679C13.5844 30.2042 14.5481 30.4739 14.3686 29.9675H13.5598V29.2183C13.6484 29.1322 14.4425 29.4056 14.3308 29.0318L13.5598 28.9944V28.3628L14.4079 28.3194V28.0197V28.0205Z" fill="white"/>
<path d="M36.2078 13.7871H32.2021L34.1664 8.39258L36.2078 13.7871Z" fill="white"/>
<path d="M45.2716 26.87C44.7046 27.4213 43.6485 27.2692 43.3034 26.5501C42.7673 25.4324 43.2819 23.1303 44.9303 23.9191C45.8493 24.3596 45.9263 26.2339 45.2723 26.87H45.2716Z" fill="white"/>
<path d="M14.9473 22.6255V21.7266H16.5264C16.9254 21.7266 16.9169 22.6255 16.3723 22.6255H14.9473Z" fill="white"/>
<path d="M15.0244 20.8286V19.9297C15.4496 20.1604 16.7268 19.7005 16.629 20.4751C16.6143 20.5927 16.3594 20.8286 16.2954 20.8286H15.0244Z" fill="white"/>
<path d="M6.31934 22.6255V21.7266H7.89847C7.92004 21.7266 8.108 21.8427 8.12879 21.8764C8.29133 22.1086 8.08951 22.6255 7.82144 22.6255H6.31934Z" fill="white"/>
<path d="M6.39628 20.8294L6.43556 19.9297C6.82919 20.1252 7.48396 19.8772 7.8252 20.0758C8.19726 20.2923 7.9084 20.8294 7.66652 20.8294H6.39551H6.39628Z" fill="white"/>
<path d="M10.71 22.6255V21.7266H12.2121C12.3823 21.7266 12.5903 22.0105 12.561 22.209C12.541 22.3431 12.2336 22.6255 12.135 22.6255H10.71Z" fill="white"/>
<path d="M10.7104 20.8281C10.7374 20.5801 10.6727 20.2767 10.7104 20.0392C10.7281 19.9231 10.6634 19.9246 10.8275 19.9261C11.0108 19.9276 12.1632 20.0273 12.221 20.0715C12.4944 20.2827 12.2526 20.8281 11.9822 20.8281H10.7112H10.7104Z" fill="white"/>
<path d="M32.3563 25.6218C32.3632 25.9237 32.3332 26.2931 32.2192 26.574C31.8009 27.6108 29.775 27.5973 29.9044 26.5777C30.0122 25.7312 31.7131 25.8601 32.3555 25.6211L32.3563 25.6218Z" fill="white"/>
<path d="M6.22374 29.3124C6.34545 29.4854 6.34622 29.7012 6.22374 29.8757L5.62598 29.9686V29.2188L6.22374 29.3116V29.3124Z" fill="white"/>
<path d="M6.15441 28.9094L5.62598 28.9207V28.3206C6.10665 28.2577 6.39321 28.4397 6.15441 28.9094Z" fill="white"/>
<path d="M9.09277 25.8467V25.0968C9.36546 25.0759 9.9016 25.156 9.86693 25.5051C9.75601 25.8722 9.43094 25.8752 9.09277 25.846V25.8467Z" fill="white"/>
<path d="M18.1826 26.7463V25.0982C19.2834 24.8196 19.315 27.0647 18.1826 26.7463Z" fill="white"/>
<path d="M12.4824 26.7479V25.0998C13.537 24.8945 13.587 27.0453 12.4824 26.7479Z" fill="white"/>
<path d="M4.54833 26.1475H4.08691L4.35652 25.3242L4.54833 26.1475Z" fill="white"/>
</g>
<defs>
<clipPath id="clip0_922_6133">
<rect width="49.8421" height="33.7169" fill="white"/>
</clipPath>
</defs>
</svg>
