<svg width="69" height="35" viewBox="0 0 69 35" fill="none" xmlns="http://www.w3.org/2000/svg">
<path d="M20.6958 9.80469H67.4014C67.8157 9.80469 68.1524 10.2331 68.1524 10.7603V19.2645H20.6958V9.80469Z" fill="#041C2D"/>
<path d="M20.6958 19.2637H68.1524V27.6398C68.1524 28.1699 67.8157 28.6006 67.4014 28.6006H20.6958V19.2637Z" fill="#0D5D93"/>
<path d="M12.9795 0.207031C13.1455 -0.0681624 13.5455 -0.0681624 13.7119 0.207031L14.083 0.822266C17.2939 6.14175 25.6482 5.41256 25.748 5.40039L26.2236 5.35449C26.4743 5.33075 26.6912 5.52761 26.6914 5.7793V14.5879C26.6914 21.6082 23.2574 28.0599 17.5049 31.8467C16.3214 32.626 15.0539 33.3646 13.7393 34.0391L13.541 34.1406C13.4185 34.2033 13.2729 34.2033 13.1504 34.1406L12.9531 34.0391C11.6376 33.365 10.3699 32.6264 9.18555 31.8467C3.43389 28.0599 0 21.6077 0 14.5879V5.78027C0.000111273 5.52893 0.216474 5.33174 0.466797 5.35547L0.942383 5.40039C1.03881 5.40924 9.4064 6.12828 12.6084 0.822266L12.9795 0.207031ZM12.1787 18.4873L9.57129 15.8809L7.65625 17.7949L10.2627 20.4014L12.1777 22.3154L14.0947 20.4014L20.7148 13.7852L18.7988 11.8711L12.1787 18.4873Z" fill="white"/>
<path d="M28.9419 12.4199H29.9586V16.2857H32.3007L32.1843 17.1183H28.9419V12.4199Z" fill="white"/>
<path d="M33.921 12.4199V17.1183H32.9043V12.4199H33.921Z" fill="white"/>
<path d="M39.0307 15.6699C38.8418 16.5462 38.1803 17.1846 37.0029 17.1846C35.512 17.1846 34.8071 16.1302 34.8071 14.7939C34.8071 13.4577 35.5345 12.3516 37.0517 12.3516C38.3037 12.3516 38.9106 13.0858 39.0253 13.8713H38.0086C37.9102 13.5093 37.6582 13.1481 37.0189 13.1481C36.1804 13.1481 35.8567 13.9016 35.8567 14.7566C35.8567 15.5507 36.1374 16.3877 37.0459 16.3877C37.7094 16.3877 37.9189 15.9438 38.0074 15.6694H39.0299L39.0307 15.6699Z" fill="white"/>
<path d="M43.0486 15.092H40.7999V16.2857H43.2805L43.16 17.1183H39.8135V12.4199H43.1473V13.2525H40.7999V14.2591H43.0486V15.0916V15.092Z" fill="white"/>
<path d="M44.0078 17.1183V12.4199H45.268C45.8553 13.4748 46.9409 15.3774 47.1568 15.8893H47.1695C47.1167 15.3991 47.1175 14.583 47.1175 13.8123V12.4199H48.0387V17.1183H46.8437C46.3384 16.2001 45.1356 14.0146 44.9028 13.472H44.8901C44.9242 13.8831 44.9356 14.8479 44.9356 15.6895V17.1183H44.0082H44.0078Z" fill="white"/>
<path d="M49.8177 15.7415C49.9251 16.2133 50.2636 16.4201 50.8079 16.4201C51.3521 16.4201 51.5828 16.2059 51.5828 15.8619C51.5828 15.4794 51.3562 15.3136 50.5521 15.1264C49.2727 14.8263 48.9563 14.361 48.9563 13.7267C48.9563 12.9077 49.5694 12.3516 50.6824 12.3516C51.9307 12.3516 52.4283 13.0223 52.4955 13.7095H51.4713C51.4222 13.4204 51.2623 13.1063 50.6562 13.1063C50.2435 13.1063 49.9948 13.2767 49.9948 13.61C49.9948 13.9433 50.1944 14.0691 50.9542 14.2452C52.3217 14.567 52.6217 15.0757 52.6217 15.7378C52.6217 16.5958 51.9721 17.1842 50.7292 17.1842C49.4862 17.1842 48.9071 16.597 48.7944 15.7407H49.8186L49.8177 15.7415Z" fill="white"/>
<path d="M56.6071 15.092H54.3585V16.2857H56.8391L56.7186 17.1183H53.3721V12.4199H56.7059V13.2525H54.3585V14.2591H56.6071V15.0916V15.092Z" fill="white"/>
<path d="M57.5659 12.4199H59.4302C60.7998 12.4199 61.6948 13.3213 61.6948 14.7103C61.6948 16.0994 60.8264 17.1183 59.3875 17.1183H57.5659V12.4199ZM58.5827 16.2976H59.3449C60.2465 16.2976 60.6449 15.6276 60.6449 14.7128C60.6449 13.9454 60.2719 13.2406 59.3511 13.2406H58.5827V16.2976Z" fill="white"/>
<path d="M33.6748 23.3576L32.422 25.0477C31.8782 25.7844 31.4983 26.3425 30.4644 26.3425C29.4304 26.3425 28.9419 25.6742 28.9419 25.0337C28.9419 24.3523 29.4001 23.9575 30.2414 23.5562C30.7209 23.3883 31.1901 23.1197 31.1901 22.6712C31.1901 22.4165 31.0537 22.1811 30.7467 22.1811C30.473 22.1811 30.2992 22.3809 30.2992 22.6864C30.2992 22.969 30.5344 23.1954 30.8057 23.4518L33.7011 26.2741H32.445L29.957 23.8343C29.6697 23.5497 29.4046 23.1942 29.4046 22.7585C29.4046 22.0459 29.9283 21.5078 30.7418 21.5078C31.5553 21.5078 32.0487 22.0553 32.0487 22.6532C32.0487 23.2511 31.5803 23.6385 30.7234 24.0366C30.116 24.2819 29.9402 24.6156 29.9402 24.9162C29.9402 25.2168 30.141 25.5227 30.5783 25.5227C31.0766 25.5227 31.277 25.2659 31.8487 24.4887L32.6786 23.358H33.6744L33.6748 23.3576Z" fill="white"/>
<path d="M37.2008 21.5762V26.2745H36.1841V21.5762H37.2008Z" fill="white"/>
<path d="M38.3257 26.2745V21.5762H39.5859C40.1731 22.6311 41.2587 24.5337 41.4747 25.0456H41.4874C41.4345 24.5554 41.4354 23.7392 41.4354 22.9685V21.5762H42.3566V26.2745H41.1616C40.6563 25.3564 39.4535 23.1708 39.2207 22.6282H39.208C39.242 23.0394 39.2535 24.0042 39.2535 24.8457V26.2745H38.3261H38.3257Z" fill="white"/>
<path d="M44.1351 24.8974C44.2425 25.3691 44.581 25.5759 45.1252 25.5759C45.6695 25.5759 45.9002 25.3618 45.9002 25.0178C45.9002 24.6353 45.6736 24.4694 44.8695 24.2823C43.5901 23.9821 43.2737 23.5169 43.2737 22.883C43.2737 22.0639 43.8868 21.5078 44.9998 21.5078C46.2481 21.5078 46.7456 22.1786 46.8129 22.8658H45.7887C45.7396 22.5766 45.5797 22.2625 44.9736 22.2625C44.5609 22.2625 44.3122 22.4329 44.3122 22.7662C44.3122 23.0996 44.5117 23.2253 45.2715 23.4014C46.6391 23.7233 46.9391 24.2319 46.9391 24.8941C46.9391 25.752 46.2895 26.3405 45.0466 26.3405C43.8036 26.3405 43.2245 25.7532 43.1118 24.897H44.1359L44.1351 24.8974Z" fill="white"/>
<path d="M48.6375 21.5762V24.3756C48.6375 25.2774 49.1014 25.5444 49.6084 25.5444C50.1903 25.5444 50.5555 25.2286 50.5555 24.3756V21.5762H51.573V24.3252C51.573 25.9318 50.6317 26.3413 49.5949 26.3413C48.558 26.3413 47.6191 25.9142 47.6191 24.3449V21.5766H48.6375V21.5762Z" fill="white"/>
<path d="M53.6409 24.394V26.2745H52.6475V21.5762H54.7133C55.7387 21.5762 56.2903 22.1405 56.2903 22.8661C56.2903 23.4968 55.9469 23.8379 55.6071 23.9776C55.8399 24.0636 56.1915 24.3056 56.1915 25.1467V25.3785C56.1915 25.6942 56.1944 26.0542 56.2587 26.2741H55.2953C55.2125 26.0698 55.1969 25.718 55.1969 25.2192V25.1504C55.1969 24.6365 55.067 24.3936 54.3093 24.3936H53.6404L53.6409 24.394ZM53.6409 23.5857H54.4933C55.0498 23.5857 55.2645 23.3739 55.2645 22.9812C55.2645 22.5885 55.0146 22.385 54.5174 22.385H53.6409V23.5857Z" fill="white"/>
<path d="M60.4309 24.2483H58.1822V25.442H60.6628L60.5423 26.2745H57.1958V21.5762H60.5296V22.4087H58.1822V23.4153H60.4309V24.2478V24.2483Z" fill="white"/>
<path d="M61.3901 21.5762H63.2544C64.624 21.5762 65.519 22.4775 65.519 23.8666C65.519 25.2557 64.6506 26.2745 63.2118 26.2745H61.3901V21.5762ZM62.4065 25.4539H63.1687C64.0703 25.4539 64.4687 24.7839 64.4687 23.869C64.4687 23.1016 64.0957 22.3968 63.1749 22.3968H62.4065V25.4539Z" fill="white"/>
</svg>
